<svg width="335" height="56" viewBox="0 0 335 56" fill="none" xmlns="http://www.w3.org/2000/svg">
<path d="M328.094 39.056C328.819 39.056 329.384 38.8693 329.79 38.496C330.195 38.1227 330.398 37.6533 330.398 37.088C330.398 36.736 330.318 36.416 330.158 36.128C329.998 35.8293 329.694 35.5573 329.246 35.312C328.808 35.0667 328.163 34.8427 327.31 34.64C325.71 34.2987 324.467 33.872 323.582 33.36C322.696 32.848 322.083 32.2613 321.742 31.6C321.4 30.928 321.23 30.1867 321.23 29.376C321.23 27.904 321.747 26.7413 322.782 25.888C323.816 25.024 325.304 24.592 327.246 24.592C327.96 24.592 328.542 24.6507 328.99 24.768C329.438 24.8853 329.8 25.008 330.078 25.136C330.366 25.2533 330.611 25.312 330.814 25.312C331.038 25.312 331.219 25.2533 331.358 25.136C331.496 25.008 331.63 24.8853 331.758 24.768C331.896 24.64 332.072 24.576 332.286 24.576C332.435 24.576 332.568 24.6293 332.686 24.736C332.803 24.832 332.904 25.0133 332.99 25.28L334.014 28.624C334.131 28.9653 334.168 29.248 334.126 29.472C334.083 29.6853 333.95 29.8347 333.726 29.92C333.502 30.0053 333.304 30.0107 333.134 29.936C332.974 29.8507 332.819 29.6907 332.67 29.456C332.179 28.592 331.656 27.904 331.102 27.392C330.558 26.8693 329.982 26.496 329.374 26.272C328.776 26.0373 328.147 25.92 327.486 25.92C326.59 25.92 325.912 26.112 325.454 26.496C325.006 26.8693 324.782 27.3707 324.782 28C324.782 28.3733 324.878 28.7147 325.07 29.024C325.262 29.3333 325.619 29.616 326.142 29.872C326.675 30.128 327.432 30.3733 328.414 30.608C329.779 30.9067 330.862 31.296 331.662 31.776C332.462 32.2453 333.038 32.8107 333.39 33.472C333.742 34.1333 333.918 34.9067 333.918 35.792C333.918 36.6987 333.683 37.4987 333.214 38.192C332.744 38.8853 332.094 39.424 331.262 39.808C330.43 40.192 329.464 40.384 328.366 40.384C327.683 40.384 327.128 40.3147 326.702 40.176C326.286 40.0373 325.939 39.904 325.662 39.776C325.384 39.6373 325.128 39.568 324.894 39.568C324.68 39.568 324.494 39.6373 324.334 39.776C324.174 39.904 324.019 40.0373 323.87 40.176C323.72 40.3147 323.55 40.384 323.358 40.384C323.208 40.384 323.08 40.3253 322.974 40.208C322.867 40.1013 322.792 39.92 322.75 39.664L322.11 36.512C322.035 36.1173 322.019 35.824 322.062 35.632C322.115 35.44 322.243 35.3013 322.446 35.216C322.659 35.1307 322.846 35.1413 323.006 35.248C323.176 35.3547 323.347 35.5413 323.518 35.808C324.19 36.9707 324.915 37.8027 325.694 38.304C326.483 38.8053 327.283 39.056 328.094 39.056Z" fill="#2563EB"/>
<path d="M309.89 26.416L309.09 26.192C308.856 26.1173 308.685 26.032 308.578 25.936C308.482 25.8293 308.434 25.7013 308.434 25.552C308.434 25.36 308.498 25.216 308.626 25.12C308.765 25.0133 308.946 24.96 309.17 24.96H310.194C310.429 24.96 310.626 24.9173 310.786 24.832C310.946 24.7467 311.112 24.5867 311.282 24.352L313.154 21.84C313.357 21.584 313.554 21.3973 313.746 21.28C313.938 21.1627 314.125 21.104 314.306 21.104C314.52 21.104 314.685 21.1733 314.802 21.312C314.92 21.44 314.978 21.6267 314.978 21.872V35.52C314.978 36.2773 315.122 36.8587 315.41 37.264C315.709 37.6587 316.125 37.856 316.658 37.856C317.032 37.856 317.325 37.7867 317.538 37.648C317.752 37.4987 317.922 37.328 318.05 37.136C318.189 36.9333 318.317 36.752 318.434 36.592C318.562 36.432 318.717 36.3307 318.898 36.288C319.048 36.2773 319.165 36.32 319.25 36.416C319.336 36.512 319.378 36.6773 319.378 36.912C319.357 37.5307 319.154 38.1013 318.77 38.624C318.386 39.136 317.858 39.5467 317.186 39.856C316.514 40.1653 315.746 40.32 314.882 40.32C313.538 40.32 312.482 39.984 311.714 39.312C310.946 38.64 310.562 37.616 310.562 36.24V27.296C310.562 27.04 310.509 26.848 310.402 26.72C310.306 26.592 310.136 26.4907 309.89 26.416ZM313.25 26.416L313.266 24.96H318.514C318.749 24.96 318.93 25.008 319.058 25.104C319.186 25.1893 319.25 25.3227 319.25 25.504C319.25 25.76 319.122 25.9787 318.866 26.16C318.61 26.3307 318.194 26.416 317.618 26.416H313.25Z" fill="#2563EB"/>
<path d="M295.22 17.152V37.6C295.22 37.9093 295.262 38.1387 295.348 38.288C295.444 38.4267 295.582 38.528 295.764 38.592L296.388 38.768C296.697 38.896 296.852 39.0933 296.852 39.36C296.852 39.7867 296.58 40 296.036 40H289.828C289.55 40 289.348 39.9467 289.22 39.84C289.092 39.7333 289.028 39.584 289.028 39.392C289.028 39.2427 289.07 39.12 289.156 39.024C289.252 38.9173 289.396 38.832 289.588 38.768L290.228 38.592C290.42 38.5387 290.558 38.4427 290.644 38.304C290.74 38.1547 290.788 37.92 290.788 37.6V19.744C290.788 19.488 290.745 19.3067 290.66 19.2C290.585 19.0827 290.462 19.0133 290.292 18.992L289.428 18.928C289.246 18.8853 289.113 18.8213 289.028 18.736C288.953 18.6507 288.916 18.5387 288.916 18.4C288.916 18.24 288.964 18.112 289.06 18.016C289.166 17.9093 289.348 17.808 289.604 17.712L292.74 16.608C293.113 16.4693 293.412 16.368 293.636 16.304C293.87 16.24 294.084 16.208 294.276 16.208C294.585 16.208 294.82 16.2987 294.98 16.48C295.14 16.6507 295.22 16.8747 295.22 17.152ZM294.74 29.12L294.068 28.432L294.692 27.872C296.004 26.6987 297.129 25.8613 298.068 25.36C299.006 24.848 299.897 24.592 300.74 24.592C302.03 24.592 303.028 25.0187 303.732 25.872C304.446 26.7253 304.878 27.872 305.028 29.312L305.956 37.552C305.988 37.8827 306.046 38.128 306.132 38.288C306.217 38.4373 306.356 38.544 306.548 38.608L307.14 38.768C307.332 38.832 307.47 38.9173 307.556 39.024C307.641 39.12 307.684 39.2427 307.684 39.392C307.684 39.584 307.62 39.7333 307.492 39.84C307.364 39.9467 307.161 40 306.884 40H300.612C300.068 40 299.796 39.7867 299.796 39.36C299.796 39.0933 299.95 38.896 300.26 38.768L300.9 38.592C301.102 38.528 301.257 38.4213 301.364 38.272C301.47 38.112 301.508 37.872 301.476 37.552L300.612 29.952C300.505 29.024 300.27 28.3307 299.908 27.872C299.556 27.4133 299.022 27.184 298.308 27.184C297.87 27.184 297.406 27.3013 296.916 27.536C296.436 27.7707 295.924 28.1173 295.38 28.576L294.74 29.12Z" fill="#2563EB"/>
<path d="M280.889 38.608C282.468 38.832 283.716 39.1253 284.633 39.488C285.561 39.8507 286.228 40.3093 286.633 40.864C287.038 41.4186 287.241 42.096 287.241 42.896C287.241 44.3466 286.468 45.5307 284.921 46.448C283.374 47.376 281.15 47.84 278.249 47.84C276.329 47.84 274.798 47.6853 273.657 47.376C272.526 47.0773 271.716 46.656 271.225 46.112C270.734 45.5786 270.489 44.9653 270.489 44.272C270.489 43.44 270.894 42.6987 271.705 42.048C272.516 41.408 273.966 40.96 276.057 40.704L276.297 41.152C275.497 41.28 274.889 41.5466 274.473 41.952C274.057 42.3573 273.849 42.8053 273.849 43.296C273.849 44.2453 274.233 45.008 275.001 45.584C275.769 46.1706 277.081 46.464 278.937 46.464C279.993 46.464 280.846 46.3733 281.497 46.192C282.148 46.0213 282.622 45.7653 282.921 45.424C283.22 45.0826 283.369 44.672 283.369 44.192C283.369 43.8187 283.225 43.488 282.937 43.2C282.66 42.9226 282.158 42.672 281.433 42.448C280.718 42.224 279.716 42.0106 278.425 41.808C276.857 41.5733 275.657 41.312 274.825 41.024C274.004 40.7466 273.438 40.4266 273.129 40.064C272.83 39.7013 272.681 39.264 272.681 38.752C272.681 38.304 272.804 37.8826 273.049 37.488C273.305 37.0933 273.732 36.7573 274.329 36.48C274.926 36.192 275.753 35.9946 276.809 35.888L277.113 36.128C276.793 36.2666 276.564 36.4106 276.425 36.56C276.286 36.7093 276.217 36.8746 276.217 37.056C276.217 37.216 276.302 37.376 276.473 37.536C276.644 37.696 277.06 37.8613 277.721 38.032C278.382 38.2026 279.438 38.3946 280.889 38.608ZM281.257 26.16L281.753 25.136C282.254 24.0693 282.857 23.2693 283.561 22.736C284.276 22.192 285.038 21.92 285.849 21.92C286.532 21.92 287.081 22.112 287.497 22.496C287.924 22.8693 288.137 23.3866 288.137 24.048C288.137 24.624 287.993 25.088 287.705 25.44C287.428 25.7813 287.044 25.952 286.553 25.952C286.212 25.952 285.945 25.8773 285.753 25.728C285.561 25.568 285.39 25.3866 285.241 25.184C285.102 24.9706 284.942 24.784 284.761 24.624C284.59 24.464 284.356 24.384 284.057 24.384C283.716 24.384 283.417 24.5173 283.161 24.784C282.905 25.0506 282.59 25.5573 282.217 26.304L281.257 26.16ZM285.945 30.32C285.945 31.5466 285.625 32.624 284.985 33.552C284.345 34.4693 283.449 35.1893 282.297 35.712C281.156 36.224 279.822 36.48 278.297 36.48C276.804 36.48 275.513 36.2346 274.425 35.744C273.337 35.2426 272.494 34.56 271.897 33.696C271.31 32.832 271.017 31.872 271.017 30.816C271.017 29.5893 271.332 28.512 271.961 27.584C272.601 26.656 273.497 25.936 274.649 25.424C275.812 24.9013 277.166 24.64 278.713 24.64C280.206 24.64 281.492 24.8906 282.569 25.392C283.646 25.8933 284.478 26.576 285.065 27.44C285.652 28.2933 285.945 29.2533 285.945 30.32ZM277.897 25.904C277.321 25.936 276.846 26.1386 276.473 26.512C276.11 26.8853 275.86 27.4133 275.721 28.096C275.582 28.7787 275.561 29.6053 275.657 30.576C275.774 31.5786 275.982 32.432 276.281 33.136C276.59 33.8293 276.98 34.352 277.449 34.704C277.918 35.0453 278.452 35.1946 279.049 35.152C279.913 35.0986 280.542 34.672 280.937 33.872C281.332 33.072 281.449 31.9413 281.289 30.48C281.118 28.9653 280.734 27.808 280.137 27.008C279.55 26.208 278.804 25.84 277.897 25.904Z" fill="#2563EB"/>
<path d="M267.095 25.6V37.6C267.095 37.9094 267.137 38.1387 267.223 38.288C267.319 38.4374 267.463 38.5387 267.655 38.592L268.279 38.752C268.471 38.816 268.609 38.9014 268.695 39.008C268.791 39.1147 268.839 39.2427 268.839 39.392C268.839 39.584 268.769 39.7334 268.631 39.84C268.503 39.9467 268.3 40 268.023 40H261.719C261.441 40 261.239 39.9467 261.111 39.84C260.983 39.7334 260.919 39.584 260.919 39.392C260.919 39.2427 260.961 39.12 261.047 39.024C261.132 38.9174 261.271 38.832 261.463 38.768L262.119 38.592C262.3 38.5387 262.433 38.4427 262.519 38.304C262.615 38.1547 262.663 37.92 262.663 37.6V28.192C262.663 27.936 262.625 27.7547 262.551 27.648C262.476 27.5307 262.348 27.4614 262.167 27.44L261.319 27.376C261.137 27.3334 261.004 27.2694 260.919 27.184C260.844 27.0987 260.807 26.9867 260.807 26.848C260.807 26.6774 260.855 26.544 260.951 26.448C261.047 26.352 261.223 26.256 261.479 26.16L264.615 25.056C265.009 24.9067 265.319 24.8054 265.543 24.752C265.767 24.688 265.964 24.656 266.135 24.656C266.455 24.656 266.695 24.7467 266.855 24.928C267.015 25.0987 267.095 25.3227 267.095 25.6ZM264.567 22.256C263.724 22.256 263.047 22.0374 262.535 21.6C262.033 21.1627 261.783 20.5867 261.783 19.872C261.783 19.1574 262.033 18.5867 262.535 18.16C263.047 17.7227 263.724 17.504 264.567 17.504C265.409 17.504 266.081 17.7227 266.583 18.16C267.095 18.5974 267.351 19.168 267.351 19.872C267.351 20.5867 267.095 21.1627 266.583 21.6C266.081 22.0374 265.409 22.256 264.567 22.256Z" fill="#2563EB"/>
<path d="M257.142 17.152V37.6C257.142 37.9093 257.185 38.1387 257.27 38.288C257.366 38.4373 257.505 38.5387 257.686 38.592L258.326 38.752C258.518 38.816 258.657 38.9013 258.742 39.008C258.838 39.1147 258.886 39.2427 258.886 39.392C258.886 39.584 258.817 39.7333 258.678 39.84C258.55 39.9467 258.347 40 258.07 40H251.75C251.483 40 251.286 39.9467 251.158 39.84C251.03 39.7333 250.966 39.584 250.966 39.392C250.966 39.2427 251.009 39.12 251.094 39.024C251.179 38.9173 251.318 38.832 251.51 38.768L252.166 38.592C252.347 38.5387 252.481 38.4427 252.566 38.304C252.662 38.1547 252.71 37.92 252.71 37.6V19.744C252.71 19.488 252.667 19.3067 252.582 19.2C252.507 19.0827 252.385 19.0133 252.214 18.992L251.35 18.928C251.169 18.8853 251.041 18.8213 250.966 18.736C250.891 18.6507 250.854 18.5387 250.854 18.4C250.854 18.24 250.902 18.112 250.998 18.016C251.094 17.9093 251.27 17.808 251.526 17.712L254.662 16.608C255.046 16.4587 255.35 16.3573 255.574 16.304C255.809 16.24 256.006 16.208 256.166 16.208C256.497 16.208 256.742 16.2987 256.902 16.48C257.062 16.6507 257.142 16.8747 257.142 17.152Z" fill="#2563EB"/>
<path d="M244.408 17.6C244.792 17.6 245.112 17.552 245.368 17.456C245.634 17.36 245.869 17.264 246.072 17.168C246.274 17.072 246.477 17.024 246.68 17.024C246.989 17.024 247.224 17.104 247.384 17.264C247.544 17.4133 247.677 17.68 247.784 18.064L249.096 22.848C249.16 23.0827 249.128 23.28 249 23.44C248.882 23.5893 248.712 23.68 248.488 23.712C248.296 23.7547 248.109 23.7387 247.928 23.664C247.757 23.5787 247.613 23.4133 247.496 23.168C246.941 22.0373 246.424 21.1787 245.944 20.592C245.474 20.0053 244.984 19.6107 244.472 19.408C243.96 19.1947 243.368 19.088 242.696 19.088H239.224V37.504C239.224 37.728 239.288 37.92 239.416 38.08C239.544 38.2293 239.746 38.3253 240.024 38.368L241.48 38.576C241.725 38.6187 241.901 38.6987 242.008 38.816C242.114 38.9333 242.168 39.104 242.168 39.328C242.168 39.5307 242.098 39.696 241.96 39.824C241.821 39.9413 241.597 40 241.288 40H232.84C232.541 40 232.317 39.9413 232.168 39.824C232.029 39.696 231.96 39.5307 231.96 39.328C231.96 38.9547 232.168 38.704 232.584 38.576L233.528 38.368C233.794 38.304 233.992 38.2027 234.12 38.064C234.248 37.9147 234.312 37.728 234.312 37.504V20.096C234.312 19.872 234.248 19.6907 234.12 19.552C233.992 19.4027 233.794 19.296 233.528 19.232L232.584 19.024C232.168 18.896 231.96 18.6453 231.96 18.272C231.96 18.0587 232.029 17.8933 232.168 17.776C232.317 17.6587 232.541 17.6 232.84 17.6H244.408ZM237.336 28.528H242.376C243.08 28.528 243.576 28.3947 243.864 28.128C244.162 27.8507 244.392 27.312 244.552 26.512C244.605 26.288 244.69 26.128 244.808 26.032C244.925 25.936 245.069 25.8773 245.24 25.856C245.645 25.8347 245.901 26.0373 246.008 26.464L247.208 31.328C247.272 31.5733 247.266 31.7707 247.192 31.92C247.117 32.0587 246.989 32.16 246.808 32.224C246.616 32.288 246.434 32.288 246.264 32.224C246.093 32.16 245.933 32.0213 245.784 31.808C245.485 31.328 245.208 30.9547 244.952 30.688C244.696 30.4213 244.413 30.24 244.104 30.144C243.794 30.0373 243.394 29.984 242.904 29.984H237.336V28.528Z" fill="#2563EB"/>
<path d="M222.509 30.656C222.509 31.1786 222.359 31.584 222.061 31.872C221.762 32.1493 221.33 32.288 220.765 32.288H210.781V31.152H217.309C217.81 31.152 218.061 30.9226 218.061 30.464C218.061 29.0026 217.805 27.8986 217.293 27.152C216.781 26.4053 216.103 26.032 215.261 26.032C214.599 26.032 214.013 26.2346 213.501 26.64C212.999 27.0453 212.605 27.632 212.317 28.4C212.039 29.1573 211.901 30.08 211.901 31.168C211.901 33.248 212.381 34.8053 213.341 35.84C214.311 36.8746 215.591 37.392 217.181 37.392C218.141 37.392 218.978 37.1946 219.693 36.8C220.407 36.4053 220.946 35.8453 221.309 35.12C221.479 34.928 221.618 34.8 221.725 34.736C221.831 34.6613 221.938 34.624 222.045 34.624C222.194 34.624 222.306 34.6933 222.381 34.832C222.455 34.9706 222.487 35.136 222.477 35.328C222.434 36.2453 222.114 37.088 221.517 37.856C220.93 38.624 220.135 39.2373 219.133 39.696C218.13 40.1546 216.983 40.384 215.693 40.384C214.167 40.384 212.818 40.0693 211.645 39.44C210.471 38.8106 209.549 37.9306 208.877 36.8C208.215 35.6586 207.885 34.3253 207.885 32.8C207.885 31.1893 208.199 29.7706 208.829 28.544C209.469 27.3066 210.386 26.3413 211.581 25.648C212.775 24.944 214.194 24.592 215.837 24.592C217.234 24.592 218.429 24.8533 219.421 25.376C220.423 25.888 221.186 26.6026 221.709 27.52C222.242 28.4266 222.509 29.472 222.509 30.656Z" fill="#2563EB"/>
<path d="M199.5 39.056C200.225 39.056 200.791 38.8693 201.196 38.496C201.601 38.1227 201.804 37.6533 201.804 37.088C201.804 36.736 201.724 36.416 201.564 36.128C201.404 35.8293 201.1 35.5573 200.652 35.312C200.215 35.0667 199.569 34.8427 198.716 34.64C197.116 34.2987 195.873 33.872 194.988 33.36C194.103 32.848 193.489 32.2613 193.148 31.6C192.807 30.928 192.636 30.1867 192.636 29.376C192.636 27.904 193.153 26.7413 194.188 25.888C195.223 25.024 196.711 24.592 198.652 24.592C199.367 24.592 199.948 24.6507 200.396 24.768C200.844 24.8853 201.207 25.008 201.484 25.136C201.772 25.2533 202.017 25.312 202.22 25.312C202.444 25.312 202.625 25.2533 202.764 25.136C202.903 25.008 203.036 24.8853 203.164 24.768C203.303 24.64 203.479 24.576 203.692 24.576C203.841 24.576 203.975 24.6293 204.092 24.736C204.209 24.832 204.311 25.0133 204.396 25.28L205.42 28.624C205.537 28.9653 205.575 29.248 205.532 29.472C205.489 29.6853 205.356 29.8347 205.132 29.92C204.908 30.0053 204.711 30.0107 204.54 29.936C204.38 29.8507 204.225 29.6907 204.076 29.456C203.585 28.592 203.063 27.904 202.508 27.392C201.964 26.8693 201.388 26.496 200.78 26.272C200.183 26.0373 199.553 25.92 198.892 25.92C197.996 25.92 197.319 26.112 196.86 26.496C196.412 26.8693 196.188 27.3707 196.188 28C196.188 28.3733 196.284 28.7147 196.476 29.024C196.668 29.3333 197.025 29.616 197.548 29.872C198.081 30.128 198.839 30.3733 199.82 30.608C201.185 30.9067 202.268 31.296 203.068 31.776C203.868 32.2453 204.444 32.8107 204.796 33.472C205.148 34.1333 205.324 34.9067 205.324 35.792C205.324 36.6987 205.089 37.4987 204.62 38.192C204.151 38.8853 203.5 39.424 202.668 39.808C201.836 40.192 200.871 40.384 199.772 40.384C199.089 40.384 198.535 40.3147 198.108 40.176C197.692 40.0373 197.345 39.904 197.068 39.776C196.791 39.6373 196.535 39.568 196.3 39.568C196.087 39.568 195.9 39.6373 195.74 39.776C195.58 39.904 195.425 40.0373 195.276 40.176C195.127 40.3147 194.956 40.384 194.764 40.384C194.615 40.384 194.487 40.3253 194.38 40.208C194.273 40.1013 194.199 39.92 194.156 39.664L193.516 36.512C193.441 36.1173 193.425 35.824 193.468 35.632C193.521 35.44 193.649 35.3013 193.852 35.216C194.065 35.1307 194.252 35.1413 194.412 35.248C194.583 35.3547 194.753 35.5413 194.924 35.808C195.596 36.9707 196.321 37.8027 197.1 38.304C197.889 38.8053 198.689 39.056 199.5 39.056Z" fill="#2563EB"/>
<path d="M184.643 38.016V37.712L184.355 37.664V28.032C184.355 27.2853 184.168 26.7093 183.795 26.304C183.422 25.888 182.894 25.68 182.211 25.68C181.571 25.68 181.08 25.8186 180.739 26.096C180.398 26.3733 180.227 26.704 180.227 27.088V28.496C180.227 29.1253 180.014 29.616 179.587 29.968C179.171 30.32 178.584 30.496 177.827 30.496C177.187 30.496 176.702 30.3413 176.371 30.032C176.04 29.7226 175.875 29.296 175.875 28.752C175.875 28.0906 176.142 27.4453 176.675 26.816C177.219 26.176 178.019 25.648 179.075 25.232C180.142 24.816 181.448 24.608 182.995 24.608C184.936 24.608 186.376 25.0026 187.315 25.792C188.264 26.5813 188.739 27.648 188.739 28.992V37.312C188.739 37.6213 188.803 37.8506 188.931 38C189.059 38.1493 189.23 38.224 189.443 38.224C189.678 38.224 189.854 38.1706 189.971 38.064C190.088 37.9466 190.19 37.824 190.275 37.696C190.328 37.632 190.382 37.5786 190.435 37.536C190.499 37.4826 190.574 37.456 190.659 37.456C190.787 37.456 190.878 37.504 190.931 37.6C190.984 37.6853 191.011 37.7973 191.011 37.936C191.011 38.2773 190.888 38.64 190.643 39.024C190.398 39.3973 190.03 39.7173 189.539 39.984C189.059 40.2506 188.451 40.384 187.715 40.384C186.766 40.384 186.014 40.176 185.459 39.76C184.915 39.3333 184.643 38.752 184.643 38.016ZM175.187 36.672C175.187 35.36 175.768 34.2986 176.931 33.488C178.104 32.6773 179.752 32.272 181.875 32.272C182.568 32.272 183.187 32.336 183.731 32.464C184.275 32.5813 184.75 32.736 185.155 32.928L184.835 33.872C184.462 33.7013 184.083 33.568 183.699 33.472C183.326 33.376 182.92 33.328 182.483 33.328C181.608 33.328 180.926 33.5573 180.435 34.016C179.944 34.4746 179.699 35.1146 179.699 35.936C179.699 36.7466 179.907 37.3706 180.323 37.808C180.75 38.2346 181.299 38.448 181.971 38.448C182.526 38.448 183.064 38.32 183.587 38.064C184.11 37.808 184.547 37.4506 184.899 36.992L185.235 37.824C184.659 38.6453 183.886 39.28 182.915 39.728C181.944 40.1653 180.915 40.384 179.827 40.384C178.451 40.384 177.331 40.0426 176.467 39.36C175.614 38.6773 175.187 37.7813 175.187 36.672Z" fill="#2563EB"/>
<path d="M173.103 34.608C173.103 36.1973 172.42 37.4933 171.055 38.496C169.69 39.4986 167.642 40 164.911 40H153.871C153.572 40 153.348 39.9413 153.199 39.824C153.06 39.696 152.991 39.5306 152.991 39.328C152.991 38.9546 153.199 38.704 153.615 38.576L154.559 38.368C154.815 38.304 155.007 38.2026 155.135 38.064C155.274 37.9146 155.343 37.7173 155.343 37.472V20.096C155.343 19.872 155.279 19.6906 155.151 19.552C155.023 19.4026 154.826 19.296 154.559 19.232L153.615 19.024C153.199 18.896 152.991 18.6453 152.991 18.272C152.991 18.0586 153.06 17.8933 153.199 17.776C153.348 17.6586 153.572 17.6 153.871 17.6H162.431C164.415 17.6 166.106 17.872 167.503 18.416C168.911 18.96 169.983 19.7173 170.719 20.688C171.455 21.648 171.823 22.7733 171.823 24.064C171.823 25.12 171.519 26.0693 170.911 26.912C170.314 27.7546 169.428 28.4213 168.255 28.912C167.092 29.392 165.652 29.632 163.935 29.632L164.815 29.168C166.49 29.168 167.946 29.4026 169.183 29.872C170.42 30.3306 171.38 30.9706 172.063 31.792C172.756 32.6133 173.103 33.552 173.103 34.608ZM163.103 30.176H158.943V28.992H162.767C163.716 28.992 164.516 28.8106 165.167 28.448C165.828 28.0853 166.324 27.5573 166.655 26.864C166.996 26.16 167.167 25.3066 167.167 24.304C167.167 23.2266 166.954 22.288 166.527 21.488C166.1 20.688 165.476 20.0693 164.655 19.632C163.844 19.184 162.858 18.96 161.695 18.96H160.239V37.168C160.239 37.6693 160.394 38.0426 160.703 38.288C161.012 38.5226 161.466 38.64 162.063 38.64H163.839C164.788 38.64 165.583 38.4693 166.223 38.128C166.874 37.7866 167.364 37.3013 167.695 36.672C168.026 36.0426 168.191 35.312 168.191 34.48C168.191 33.1786 167.759 32.1386 166.895 31.36C166.031 30.5706 164.767 30.176 163.103 30.176Z" fill="#2563EB"/>
<path d="M143.54 30.656C143.54 31.1786 143.39 31.584 143.092 31.872C142.793 32.1493 142.361 32.288 141.796 32.288H131.812V31.152H138.34C138.841 31.152 139.092 30.9226 139.092 30.464C139.092 29.0026 138.836 27.8986 138.324 27.152C137.812 26.4053 137.134 26.032 136.292 26.032C135.63 26.032 135.044 26.2346 134.532 26.64C134.03 27.0453 133.636 27.632 133.348 28.4C133.07 29.1573 132.932 30.08 132.932 31.168C132.932 33.248 133.412 34.8053 134.372 35.84C135.342 36.8746 136.622 37.392 138.212 37.392C139.172 37.392 140.009 37.1946 140.724 36.8C141.438 36.4053 141.977 35.8453 142.34 35.12C142.51 34.928 142.649 34.8 142.756 34.736C142.862 34.6613 142.969 34.624 143.076 34.624C143.225 34.624 143.337 34.6933 143.412 34.832C143.486 34.9706 143.518 35.136 143.508 35.328C143.465 36.2453 143.145 37.088 142.548 37.856C141.961 38.624 141.166 39.2373 140.164 39.696C139.161 40.1546 138.014 40.384 136.724 40.384C135.198 40.384 133.849 40.0693 132.676 39.44C131.502 38.8106 130.58 37.9306 129.908 36.8C129.246 35.6586 128.916 34.3253 128.916 32.8C128.916 31.1893 129.23 29.7706 129.86 28.544C130.5 27.3066 131.417 26.3413 132.612 25.648C133.806 24.944 135.225 24.592 136.868 24.592C138.265 24.592 139.46 24.8533 140.452 25.376C141.454 25.888 142.217 26.6026 142.74 27.52C143.273 28.4266 143.54 29.472 143.54 30.656Z" fill="#2563EB"/>
<path d="M105.095 25.6V37.6C105.095 37.9093 105.137 38.1386 105.223 38.288C105.319 38.4373 105.457 38.544 105.639 38.608L106.263 38.768C106.572 38.896 106.727 39.0933 106.727 39.36C106.727 39.7866 106.455 40 105.911 40H99.7027C99.4254 40 99.2227 39.9466 99.0947 39.84C98.9667 39.7226 98.9027 39.5733 98.9027 39.392C98.9027 39.2426 98.9454 39.12 99.0307 39.024C99.1267 38.9173 99.2707 38.832 99.4627 38.768L100.103 38.592C100.295 38.5386 100.433 38.4426 100.519 38.304C100.615 38.1546 100.663 37.9253 100.663 37.616V28.192C100.663 27.936 100.62 27.7546 100.535 27.648C100.46 27.5306 100.337 27.4613 100.167 27.44L99.3027 27.376C99.1214 27.3333 98.9881 27.2693 98.9027 27.184C98.8281 27.0986 98.7907 26.9866 98.7907 26.848C98.7907 26.688 98.8387 26.56 98.9347 26.464C99.0307 26.3573 99.2121 26.256 99.4787 26.16L102.615 25.056C102.988 24.9173 103.287 24.816 103.511 24.752C103.745 24.688 103.959 24.656 104.151 24.656C104.46 24.656 104.695 24.7466 104.855 24.928C105.015 25.0986 105.095 25.3226 105.095 25.6ZM104.615 29.12L103.943 28.432L104.567 27.888C105.889 26.6613 107.041 25.808 108.023 25.328C109.004 24.8373 109.932 24.592 110.807 24.592C112.151 24.592 113.223 25.0186 114.023 25.872C114.833 26.7253 115.239 27.8826 115.239 29.344V37.568C115.239 37.8986 115.287 38.1386 115.383 38.288C115.479 38.4373 115.628 38.544 115.831 38.608L116.375 38.768C116.684 38.896 116.839 39.0933 116.839 39.36C116.839 39.7866 116.567 40 116.023 40H109.959C109.415 40 109.143 39.7866 109.143 39.36C109.143 39.0933 109.297 38.896 109.607 38.768L110.231 38.608C110.444 38.544 110.593 38.432 110.679 38.272C110.764 38.112 110.807 37.872 110.807 37.552V29.984C110.807 29.0453 110.588 28.3466 110.151 27.888C109.713 27.4186 109.111 27.184 108.343 27.184C107.873 27.184 107.377 27.296 106.855 27.52C106.343 27.744 105.809 28.096 105.255 28.576L104.615 29.12ZM114.743 29.12L114.071 28.432L114.695 27.872C115.964 26.6986 117.057 25.8613 117.975 25.36C118.903 24.848 119.788 24.592 120.631 24.592C121.921 24.592 122.924 25.024 123.639 25.888C124.364 26.7413 124.801 27.8933 124.951 29.344L125.879 37.568C125.921 37.8986 125.98 38.1386 126.055 38.288C126.14 38.4373 126.279 38.544 126.471 38.608L127.047 38.768C127.239 38.832 127.377 38.9173 127.463 39.024C127.548 39.12 127.591 39.2426 127.591 39.392C127.591 39.584 127.527 39.7333 127.399 39.84C127.271 39.9466 127.068 40 126.791 40H120.551C120.007 40 119.735 39.7866 119.735 39.36C119.735 39.0933 119.889 38.896 120.199 38.768L120.823 38.608C121.025 38.544 121.18 38.432 121.287 38.272C121.393 38.112 121.431 37.8666 121.399 37.536L120.535 29.984C120.428 29.056 120.188 28.3573 119.815 27.888C119.452 27.4186 118.913 27.184 118.199 27.184C117.772 27.184 117.324 27.3013 116.855 27.536C116.396 27.7706 115.905 28.112 115.383 28.56L114.743 29.12Z" fill="#2563EB"/>
<path d="M88.4247 24.592C90.0461 24.592 91.4701 24.928 92.6967 25.6C93.9341 26.272 94.8941 27.2053 95.5767 28.4C96.2701 29.584 96.6168 30.96 96.6168 32.528C96.6168 34.0213 96.2594 35.3653 95.5447 36.56C94.8407 37.744 93.8594 38.6773 92.6007 39.36C91.3527 40.0426 89.9074 40.384 88.2647 40.384C86.6434 40.384 85.2141 40.048 83.9767 39.376C82.7501 38.704 81.7901 37.7706 81.0967 36.576C80.4034 35.3813 80.0567 34.0106 80.0567 32.464C80.0567 30.9493 80.4087 29.6 81.1127 28.416C81.8274 27.232 82.8087 26.2986 84.0567 25.616C85.3154 24.9333 86.7714 24.592 88.4247 24.592ZM89.5287 38.848C90.2434 38.7413 90.8194 38.4106 91.2568 37.856C91.7048 37.2906 91.9874 36.5173 92.1047 35.536C92.2221 34.544 92.1581 33.3493 91.9127 31.952C91.6781 30.5546 91.3261 29.408 90.8567 28.512C90.3981 27.6053 89.8541 26.9493 89.2247 26.544C88.5954 26.1386 87.9074 26 87.1607 26.128C86.4354 26.2346 85.8541 26.5706 85.4167 27.136C84.9794 27.6906 84.7021 28.464 84.5847 29.456C84.4674 30.4373 84.5314 31.632 84.7767 33.04C85.0114 34.416 85.3581 35.5573 85.8167 36.464C86.2861 37.3706 86.8354 38.0266 87.4648 38.432C88.0941 38.8266 88.7821 38.9653 89.5287 38.848Z" fill="#2563EB"/>
<path d="M58.08 28.624H71.808V30.176H58.08V28.624ZM60.88 37.504C60.88 37.728 60.944 37.9146 61.072 38.064C61.2107 38.2026 61.408 38.304 61.664 38.368L62.608 38.576C63.024 38.704 63.232 38.9546 63.232 39.328C63.232 39.5306 63.1627 39.696 63.024 39.824C62.8853 39.9413 62.6613 40 62.352 40H54.496C54.1973 40 53.9733 39.9413 53.824 39.824C53.6853 39.696 53.616 39.5306 53.616 39.328C53.616 38.9546 53.824 38.704 54.24 38.576L55.184 38.368C55.4507 38.304 55.648 38.2026 55.776 38.064C55.904 37.9146 55.968 37.728 55.968 37.504V20.096C55.968 19.872 55.904 19.6906 55.776 19.552C55.648 19.4026 55.4507 19.296 55.184 19.232L54.24 19.024C53.824 18.896 53.616 18.6453 53.616 18.272C53.616 18.0586 53.6853 17.8933 53.824 17.776C53.9733 17.6586 54.1973 17.6 54.496 17.6H62.352C62.6613 17.6 62.8853 17.6586 63.024 17.776C63.1627 17.8933 63.232 18.0586 63.232 18.272C63.232 18.6453 63.024 18.896 62.608 19.024L61.664 19.232C61.408 19.296 61.2107 19.4026 61.072 19.552C60.944 19.6906 60.88 19.872 60.88 20.096V37.504ZM74.976 37.504C74.976 37.728 75.0453 37.9146 75.184 38.064C75.3227 38.2026 75.5147 38.304 75.76 38.368L76.72 38.576C77.136 38.704 77.344 38.9546 77.344 39.328C77.344 39.5306 77.2693 39.696 77.12 39.824C76.9813 39.9413 76.7573 40 76.448 40H68.608C68.2987 40 68.0693 39.9413 67.92 39.824C67.7813 39.696 67.712 39.5306 67.712 39.328C67.712 38.9546 67.9253 38.704 68.352 38.576L69.296 38.368C69.552 38.304 69.744 38.2026 69.872 38.064C70.0107 37.9146 70.08 37.728 70.08 37.504V20.096C70.08 19.872 70.0107 19.6906 69.872 19.552C69.744 19.4026 69.552 19.296 69.296 19.232L68.352 19.024C67.9253 18.896 67.712 18.6453 67.712 18.272C67.712 18.0586 67.7813 17.8933 67.92 17.776C68.0693 17.6586 68.2987 17.6 68.608 17.6H76.448C76.7573 17.6 76.9813 17.6586 77.12 17.776C77.2693 17.8933 77.344 18.0586 77.344 18.272C77.344 18.6453 77.136 18.896 76.72 19.024L75.76 19.232C75.5147 19.296 75.3227 19.4026 75.184 19.552C75.0453 19.6906 74.976 19.872 74.976 20.096V37.504Z" fill="#2563EB"/>
<path d="M22.8389 0C33.8759 0 42.8232 7.97765 42.8232 17.8184C42.8232 17.9885 42.8207 18.1581 42.8154 18.3271H42.8232V39.5059H42.7666C41.9693 48.7282 32.9092 56 21.8506 56C21.741 56 21.6316 55.9975 21.5225 55.9961C21.4126 55.9975 21.3026 56 21.1924 56C10.018 56 0.863318 48.7282 0.0576172 39.5059H0V18.3271H0.00878906C0.00329639 18.1581 1.92069e-06 17.9885 0 17.8184C0 7.97765 9.24267 0 20.6436 0C21.0174 6.38904e-06 21.3889 0.00844656 21.7578 0.0253906C22.1157 0.0083734 22.4762 5.56123e-06 22.8389 0ZM13.4375 21.8037C11.2189 21.098 9.24927 21.152 7.83691 21.3799C7.13102 21.4938 6.57217 21.6493 6.20508 21.7705C6.1274 21.7962 6.05951 21.8229 6 21.8447V37.4629H6.04199C6.62502 44.8079 13.2516 50.5994 21.3408 50.5996C21.4206 50.5996 21.5006 50.5968 21.5801 50.5957C21.6593 50.5968 21.7389 50.5996 21.8184 50.5996C29.8238 50.5995 36.382 44.8079 36.959 37.4629H37V32.25C36.9348 32.1784 36.8719 32.1037 36.8145 32.0234L36.6787 31.8125C36.68 31.8147 36.681 31.8174 36.6816 31.8184C36.6811 31.8176 36.6796 31.816 36.6787 31.8145C36.6726 31.8043 36.6583 31.7801 36.6357 31.7451C36.5899 31.6739 36.5107 31.5542 36.3965 31.3994C36.1669 31.0884 35.8002 30.6384 35.29 30.1377C34.2689 29.1356 32.6922 27.9529 30.4736 27.2471C28.2554 26.5415 26.2863 26.5954 24.874 26.8232C24.1682 26.9371 23.6093 27.0937 23.2422 27.2148C23.1835 27.2342 23.1304 27.2552 23.082 27.2725C23.0692 27.28 23.0569 27.2895 23.0439 27.2969C22.5917 27.5537 22.0934 27.654 21.6113 27.6152C20.7133 27.5744 19.868 27.0511 19.46 26.1807C19.4302 26.1171 19.4049 26.052 19.3809 25.9873C19.3737 25.9775 19.3668 25.9661 19.3594 25.9561C19.1298 25.6451 18.7639 25.1949 18.2539 24.6943C17.2328 23.6922 15.6561 22.5096 13.4375 21.8037ZM22.5332 6C22.2708 6.00001 22.01 6.00697 21.751 6.02051C21.4837 6.007 21.2142 6 20.9434 6C14.0196 6.00018 8.1964 10.472 6.5 16.54C6.67337 16.5061 6.85347 16.4735 7.04004 16.4434C9.04671 16.1195 11.8322 16.0463 14.9531 17.0391C18.0741 18.032 20.3051 19.7012 21.7559 21.125C22.1281 21.4904 22.4507 21.8415 22.7256 22.1631C23.126 22.063 23.5788 21.9671 24.0771 21.8867C26.0838 21.5629 28.8694 21.4906 31.9902 22.4834C34.0305 23.1326 35.6897 24.0716 37 25.041V20.5967H36.9941C36.998 20.4618 37 20.3262 37 20.1904C36.9998 12.3532 30.5229 6 22.5332 6Z" fill="#2563EB"/>
</svg>
