<svg width="128" height="112" viewBox="0 0 128 112" fill="none" xmlns="http://www.w3.org/2000/svg">
<path d="M97.7537 105.256C98.3057 105.256 98.7297 105.12 99.0257 104.848C99.3297 104.568 99.4817 104.216 99.4817 103.792C99.4817 103.52 99.4217 103.276 99.3017 103.06C99.1897 102.844 98.9657 102.648 98.6297 102.472C98.2937 102.288 97.8097 102.12 97.1777 101.968C95.9617 101.712 95.0177 101.396 94.3457 101.02C93.6817 100.636 93.2177 100.192 92.9537 99.688C92.6977 99.184 92.5697 98.628 92.5697 98.02C92.5697 96.908 92.9617 96.028 93.7457 95.38C94.5297 94.732 95.6577 94.408 97.1297 94.408C97.6577 94.408 98.0897 94.452 98.4257 94.54C98.7697 94.628 99.0457 94.72 99.2537 94.816C99.4697 94.904 99.6577 94.948 99.8177 94.948C99.9937 94.948 100.13 94.904 100.226 94.816C100.322 94.72 100.418 94.628 100.514 94.54C100.618 94.444 100.75 94.396 100.91 94.396C101.022 94.396 101.122 94.436 101.21 94.516C101.306 94.588 101.386 94.728 101.45 94.936L102.23 97.408C102.318 97.672 102.346 97.888 102.314 98.056C102.282 98.224 102.178 98.344 102.002 98.416C101.826 98.48 101.674 98.48 101.546 98.416C101.418 98.352 101.298 98.232 101.186 98.056C100.818 97.416 100.426 96.908 100.01 96.532C99.6017 96.148 99.1697 95.872 98.7137 95.704C98.2657 95.528 97.7977 95.44 97.3097 95.44C96.6297 95.44 96.1177 95.58 95.7737 95.86C95.4377 96.14 95.2697 96.516 95.2697 96.988C95.2697 97.276 95.3417 97.536 95.4857 97.768C95.6297 97.992 95.8977 98.2 96.2897 98.392C96.6897 98.576 97.2577 98.756 97.9937 98.932C99.0257 99.156 99.8417 99.448 100.442 99.808C101.05 100.16 101.486 100.588 101.75 101.092C102.014 101.588 102.146 102.168 102.146 102.832C102.146 103.52 101.97 104.124 101.618 104.644C101.266 105.164 100.774 105.572 100.142 105.868C99.5177 106.156 98.7897 106.3 97.9577 106.3C97.4457 106.3 97.0297 106.248 96.7097 106.144C96.3977 106.04 96.1377 105.936 95.9297 105.832C95.7217 105.728 95.5257 105.676 95.3417 105.676C95.1737 105.676 95.0297 105.728 94.9097 105.832C94.7977 105.936 94.6857 106.036 94.5737 106.132C94.4697 106.236 94.3417 106.288 94.1897 106.288C94.0777 106.288 93.9817 106.244 93.9017 106.156C93.8217 106.076 93.7617 105.936 93.7217 105.736L93.2417 103.408C93.1857 103.104 93.1737 102.876 93.2057 102.724C93.2457 102.572 93.3457 102.464 93.5057 102.4C93.6737 102.336 93.8217 102.344 93.9497 102.424C94.0777 102.504 94.2097 102.652 94.3457 102.868C94.8417 103.724 95.3817 104.336 95.9657 104.704C96.5497 105.072 97.1457 105.256 97.7537 105.256Z" fill="white"/>
<path d="M83.9948 95.812L83.4068 95.644C83.2228 95.588 83.0948 95.52 83.0228 95.44C82.9508 95.36 82.9147 95.264 82.9147 95.152C82.9147 95 82.9667 94.884 83.0707 94.804C83.1747 94.724 83.3108 94.684 83.4788 94.684H84.2347C84.4107 94.684 84.5628 94.652 84.6908 94.588C84.8188 94.516 84.9468 94.388 85.0748 94.204L86.4307 92.356C86.5907 92.156 86.7427 92.008 86.8867 91.912C87.0387 91.816 87.1908 91.768 87.3428 91.768C87.5028 91.768 87.6268 91.82 87.7148 91.924C87.8028 92.028 87.8467 92.176 87.8467 92.368V102.616C87.8467 103.184 87.9548 103.616 88.1708 103.912C88.3948 104.208 88.7068 104.356 89.1068 104.356C89.3948 104.356 89.6188 104.3 89.7788 104.188C89.9388 104.076 90.0668 103.948 90.1628 103.804C90.2667 103.652 90.3628 103.516 90.4508 103.396C90.5468 103.276 90.6628 103.204 90.7988 103.18C90.9188 103.18 91.0108 103.22 91.0748 103.3C91.1388 103.372 91.1708 103.496 91.1708 103.672C91.1628 104.136 91.0108 104.564 90.7148 104.956C90.4268 105.34 90.0268 105.652 89.5148 105.892C89.0108 106.132 88.4307 106.252 87.7747 106.252C86.7587 106.252 85.9587 105.996 85.3747 105.484C84.7987 104.972 84.5107 104.2 84.5107 103.168V96.496C84.5107 96.296 84.4708 96.148 84.3908 96.052C84.3108 95.956 84.1788 95.876 83.9948 95.812ZM86.5387 95.812L86.5508 94.684H90.4987C90.6747 94.684 90.8148 94.72 90.9188 94.792C91.0228 94.864 91.0748 94.968 91.0748 95.104C91.0748 95.304 90.9747 95.472 90.7747 95.608C90.5747 95.744 90.2507 95.812 89.8027 95.812H86.5387Z" fill="white"/>
<path d="M72.8993 88.888V104.14C72.8993 104.38 72.9313 104.556 72.9953 104.668C73.0673 104.78 73.1713 104.86 73.3073 104.908L73.7633 105.04C74.0033 105.136 74.1233 105.288 74.1233 105.496C74.1233 105.832 73.9113 106 73.4873 106H68.8433C68.6273 106 68.4673 105.96 68.3633 105.88C68.2673 105.792 68.2193 105.672 68.2193 105.52C68.2193 105.408 68.2513 105.312 68.3153 105.232C68.3873 105.152 68.4993 105.088 68.6513 105.04L69.1312 104.908C69.2752 104.86 69.3793 104.784 69.4433 104.68C69.5153 104.568 69.5513 104.392 69.5513 104.152V90.868C69.5513 90.668 69.5193 90.528 69.4553 90.448C69.3993 90.36 69.3033 90.304 69.1673 90.28L68.5312 90.232C68.3873 90.208 68.2833 90.16 68.2193 90.088C68.1633 90.016 68.1353 89.928 68.1353 89.824C68.1353 89.696 68.1712 89.596 68.2432 89.524C68.3232 89.444 68.4633 89.364 68.6633 89.284L70.9673 88.468C71.2553 88.356 71.4873 88.276 71.6633 88.228C71.8393 88.18 72.0073 88.156 72.1673 88.156C72.4073 88.156 72.5873 88.224 72.7073 88.36C72.8353 88.496 72.8993 88.672 72.8993 88.888ZM72.5273 97.852L72.0113 97.312L72.4792 96.892C73.4712 95.996 74.3232 95.36 75.0352 94.984C75.7472 94.6 76.4232 94.408 77.0632 94.408C78.0392 94.408 78.7953 94.732 79.3313 95.38C79.8673 96.028 80.1913 96.896 80.3033 97.984L80.9873 104.116C81.0193 104.364 81.0632 104.548 81.1192 104.668C81.1832 104.788 81.2913 104.872 81.4433 104.92L81.8753 105.04C82.0193 105.088 82.1232 105.152 82.1872 105.232C82.2592 105.312 82.2952 105.408 82.2952 105.52C82.2952 105.672 82.2473 105.792 82.1513 105.88C82.0553 105.96 81.8952 106 81.6712 106H76.9792C76.5552 106 76.3433 105.832 76.3433 105.496C76.3433 105.288 76.4633 105.136 76.7033 105.04L77.1712 104.908C77.3312 104.86 77.4513 104.78 77.5312 104.668C77.6112 104.548 77.6352 104.364 77.6032 104.116L76.9673 98.464C76.8873 97.768 76.7113 97.248 76.4393 96.904C76.1673 96.552 75.7632 96.376 75.2272 96.376C74.8992 96.376 74.5472 96.464 74.1712 96.64C73.8032 96.816 73.4152 97.08 73.0072 97.432L72.5273 97.852Z" fill="white"/>
<path d="M62.0689 104.932C63.2609 105.092 64.2049 105.312 64.9009 105.592C65.6049 105.864 66.1089 106.208 66.4129 106.624C66.7169 107.048 66.8689 107.556 66.8689 108.148C66.8689 109.244 66.2849 110.14 65.1169 110.836C63.9489 111.532 62.2649 111.88 60.0649 111.88C58.6249 111.88 57.4769 111.764 56.6209 111.532C55.7729 111.3 55.1609 110.984 54.7849 110.584C54.4169 110.184 54.2329 109.724 54.2329 109.204C54.2329 108.58 54.5369 108.024 55.1449 107.536C55.7609 107.048 56.8609 106.708 58.4449 106.516L58.6249 106.864C58.0249 106.96 57.5649 107.16 57.2449 107.464C56.9329 107.768 56.7769 108.104 56.7769 108.472C56.7769 109.176 57.0649 109.74 57.6409 110.164C58.2169 110.596 59.2009 110.812 60.5929 110.812C61.3929 110.812 62.0369 110.744 62.5249 110.608C63.0129 110.472 63.3689 110.276 63.5929 110.02C63.8249 109.772 63.9409 109.472 63.9409 109.12C63.9409 108.832 63.8329 108.584 63.6169 108.376C63.4009 108.168 63.0209 107.98 62.4769 107.812C61.9409 107.652 61.1849 107.496 60.2089 107.344C59.0249 107.168 58.1209 106.972 57.4969 106.756C56.8729 106.548 56.4449 106.308 56.2129 106.036C55.9889 105.764 55.8769 105.436 55.8769 105.052C55.8769 104.716 55.9689 104.4 56.1529 104.104C56.3449 103.808 56.6649 103.556 57.1129 103.348C57.5689 103.132 58.1929 102.984 58.9849 102.904L59.2249 103.096C58.9849 103.2 58.8129 103.308 58.7089 103.42C58.6049 103.532 58.5529 103.652 58.5529 103.78C58.5529 103.9 58.6169 104.02 58.7449 104.14C58.8729 104.252 59.1849 104.372 59.6809 104.5C60.1769 104.628 60.9729 104.772 62.0689 104.932ZM62.3449 95.62L62.7409 94.816C63.1169 94.008 63.5729 93.404 64.1089 93.004C64.6529 92.596 65.2289 92.392 65.8369 92.392C66.3489 92.392 66.7609 92.536 67.0729 92.824C67.3929 93.104 67.5529 93.492 67.5529 93.988C67.5529 94.428 67.4449 94.78 67.2289 95.044C67.0129 95.308 66.7249 95.44 66.3649 95.44C66.1089 95.44 65.9049 95.38 65.7529 95.26C65.6089 95.14 65.4849 95.004 65.3809 94.852C65.2769 94.7 65.1569 94.564 65.0209 94.444C64.8929 94.324 64.7129 94.264 64.4809 94.264C64.2329 94.264 64.0089 94.364 63.8089 94.564C63.6169 94.764 63.3809 95.148 63.1009 95.716L62.3449 95.62ZM65.8849 98.728C65.8849 99.64 65.6449 100.448 65.1649 101.152C64.6849 101.848 64.0129 102.392 63.1489 102.784C62.2849 103.168 61.2729 103.36 60.1129 103.36C58.9849 103.36 58.0089 103.172 57.1849 102.796C56.3689 102.42 55.7409 101.908 55.3009 101.26C54.8609 100.612 54.6409 99.888 54.6409 99.088C54.6409 98.168 54.8769 97.36 55.3489 96.664C55.8289 95.96 56.5049 95.416 57.3769 95.032C58.2489 94.64 59.2689 94.444 60.4369 94.444C61.5649 94.444 62.5329 94.632 63.3409 95.008C64.1569 95.384 64.7849 95.896 65.2249 96.544C65.6649 97.192 65.8849 97.92 65.8849 98.728ZM59.8249 95.428C59.3929 95.452 59.0369 95.604 58.7569 95.884C58.4769 96.156 58.2849 96.548 58.1809 97.06C58.0769 97.572 58.0649 98.192 58.1449 98.92C58.2329 99.672 58.3889 100.308 58.6129 100.828C58.8369 101.348 59.1249 101.736 59.4769 101.992C59.8369 102.248 60.2409 102.36 60.6889 102.328C61.3449 102.288 61.8169 101.972 62.1049 101.38C62.4009 100.78 62.4889 99.932 62.3689 98.836C62.2409 97.708 61.9529 96.848 61.5049 96.256C61.0649 95.656 60.5049 95.38 59.8249 95.428Z" fill="white"/>
<path d="M51.6414 95.188V104.14C51.6414 104.38 51.6734 104.56 51.7374 104.68C51.8094 104.792 51.9174 104.868 52.0614 104.908L52.5174 105.028C52.6694 105.084 52.7774 105.152 52.8414 105.232C52.9134 105.312 52.9494 105.408 52.9494 105.52C52.9494 105.672 52.8974 105.792 52.7934 105.88C52.6974 105.96 52.5414 106 52.3254 106H47.5854C47.3774 106 47.2214 105.96 47.1174 105.88C47.0214 105.792 46.9734 105.672 46.9734 105.52C46.9734 105.408 47.0054 105.312 47.0694 105.232C47.1414 105.152 47.2494 105.088 47.3934 105.04L47.8734 104.908C48.0174 104.86 48.1214 104.784 48.1854 104.68C48.2574 104.568 48.2934 104.392 48.2934 104.152V97.168C48.2934 96.968 48.2614 96.828 48.1974 96.748C48.1414 96.66 48.0454 96.604 47.9094 96.58L47.2734 96.532C47.1294 96.508 47.0254 96.46 46.9614 96.388C46.9054 96.316 46.8774 96.228 46.8774 96.124C46.8774 95.996 46.9134 95.896 46.9854 95.824C47.0654 95.744 47.2054 95.664 47.4054 95.584L49.7094 94.768C50.0134 94.656 50.2534 94.576 50.4294 94.528C50.6054 94.48 50.7574 94.456 50.8854 94.456C51.1414 94.456 51.3294 94.524 51.4494 94.66C51.5774 94.796 51.6414 94.972 51.6414 95.188ZM49.7094 92.644C49.0774 92.644 48.5694 92.48 48.1854 92.152C47.8014 91.816 47.6094 91.38 47.6094 90.844C47.6094 90.316 47.8014 89.892 48.1854 89.572C48.5694 89.244 49.0774 89.08 49.7094 89.08C50.3494 89.08 50.8614 89.244 51.2454 89.572C51.6374 89.892 51.8334 90.316 51.8334 90.844C51.8334 91.38 51.6374 91.816 51.2454 92.152C50.8614 92.48 50.3494 92.644 49.7094 92.644Z" fill="white"/>
<path d="M44.0711 88.888V104.14C44.0711 104.38 44.1031 104.56 44.1671 104.68C44.2391 104.792 44.3471 104.868 44.4911 104.908L44.9591 105.028C45.1111 105.084 45.2191 105.152 45.2831 105.232C45.3551 105.312 45.3911 105.408 45.3911 105.52C45.3911 105.672 45.3391 105.792 45.2351 105.88C45.1311 105.96 44.9711 106 44.7551 106H40.0271C39.8111 106 39.6511 105.96 39.5471 105.88C39.4511 105.792 39.4031 105.672 39.4031 105.52C39.4031 105.408 39.4351 105.312 39.4991 105.232C39.5711 105.152 39.6831 105.088 39.8351 105.04L40.3151 104.908C40.4511 104.86 40.5511 104.784 40.6151 104.68C40.6871 104.568 40.7231 104.392 40.7231 104.152V90.868C40.7231 90.668 40.6911 90.528 40.6271 90.448C40.5711 90.36 40.4791 90.304 40.3511 90.28L39.7031 90.232C39.5671 90.208 39.4671 90.16 39.4031 90.088C39.3471 90.016 39.3191 89.928 39.3191 89.824C39.3191 89.696 39.3551 89.596 39.4271 89.524C39.4991 89.444 39.6391 89.364 39.8471 89.284L42.1511 88.468C42.4471 88.356 42.6831 88.276 42.8591 88.228C43.0351 88.18 43.1871 88.156 43.3151 88.156C43.5711 88.156 43.7591 88.224 43.8791 88.36C44.0071 88.496 44.0711 88.672 44.0711 88.888Z" fill="white"/>
<path d="M34.3901 89.2C34.6941 89.2 34.9421 89.164 35.1341 89.092C35.3341 89.012 35.5101 88.936 35.6621 88.864C35.8221 88.792 35.9821 88.756 36.1421 88.756C36.3821 88.756 36.5621 88.82 36.6821 88.948C36.8101 89.068 36.9141 89.272 36.9941 89.56L37.9781 93.124C38.0261 93.308 38.0021 93.46 37.9061 93.58C37.8181 93.7 37.6861 93.772 37.5101 93.796C37.3581 93.828 37.2101 93.816 37.0661 93.76C36.9301 93.696 36.8141 93.568 36.7181 93.376C36.3181 92.536 35.9421 91.9 35.5901 91.468C35.2461 91.036 34.8821 90.744 34.4981 90.592C34.1221 90.432 33.6821 90.352 33.1781 90.352H30.5501V104.068C30.5501 104.244 30.5981 104.392 30.6941 104.512C30.7981 104.632 30.9501 104.708 31.1501 104.74L32.2301 104.884C32.4301 104.916 32.5701 104.98 32.6501 105.076C32.7301 105.172 32.7701 105.304 32.7701 105.472C32.7701 105.632 32.7141 105.76 32.6021 105.856C32.4981 105.952 32.3261 106 32.0861 106H25.7741C25.5341 106 25.3581 105.952 25.2461 105.856C25.1341 105.76 25.0781 105.632 25.0781 105.472C25.0781 105.184 25.2421 104.992 25.5701 104.896L26.2661 104.74C26.4661 104.684 26.6141 104.604 26.7101 104.5C26.8061 104.388 26.8541 104.244 26.8541 104.068V91.132C26.8541 90.956 26.8061 90.816 26.7101 90.712C26.6141 90.6 26.4661 90.516 26.2661 90.46L25.5701 90.304C25.2421 90.208 25.0781 90.016 25.0781 89.728C25.0781 89.56 25.1341 89.432 25.2461 89.344C25.3581 89.248 25.5341 89.2 25.7741 89.2H34.3901ZM29.1221 97.396H32.9381C33.4501 97.396 33.8101 97.296 34.0181 97.096C34.2341 96.896 34.4021 96.5 34.5221 95.908C34.5701 95.732 34.6381 95.608 34.7261 95.536C34.8221 95.456 34.9381 95.412 35.0741 95.404C35.3861 95.388 35.5821 95.544 35.6621 95.872L36.5621 99.484C36.6181 99.684 36.6141 99.84 36.5501 99.952C36.4941 100.064 36.3941 100.144 36.2501 100.192C36.0981 100.24 35.9541 100.24 35.8181 100.192C35.6901 100.136 35.5661 100.028 35.4461 99.868C35.2301 99.508 35.0301 99.232 34.8461 99.04C34.6621 98.848 34.4541 98.716 34.2221 98.644C33.9901 98.572 33.6901 98.536 33.3221 98.536H29.1221V97.396Z" fill="white"/>
<path d="M127.562 75.956C127.562 76.364 127.446 76.676 127.214 76.892C126.982 77.108 126.646 77.216 126.206 77.216H118.718V76.34H123.614C124.006 76.34 124.202 76.164 124.202 75.812C124.202 74.732 124.01 73.916 123.626 73.364C123.242 72.812 122.73 72.536 122.09 72.536C121.594 72.536 121.154 72.688 120.77 72.992C120.394 73.288 120.098 73.724 119.882 74.3C119.666 74.868 119.558 75.552 119.558 76.352C119.558 77.912 119.918 79.08 120.638 79.856C121.366 80.632 122.33 81.02 123.53 81.02C124.242 81.02 124.866 80.876 125.402 80.588C125.938 80.292 126.346 79.88 126.626 79.352C126.762 79.2 126.87 79.096 126.95 79.04C127.03 78.984 127.114 78.956 127.202 78.956C127.322 78.956 127.41 79.012 127.466 79.124C127.522 79.236 127.546 79.368 127.538 79.52C127.506 80.2 127.266 80.828 126.818 81.404C126.378 81.98 125.778 82.44 125.018 82.784C124.266 83.12 123.398 83.288 122.414 83.288C121.27 83.288 120.254 83.052 119.366 82.58C118.478 82.108 117.782 81.444 117.278 80.588C116.774 79.732 116.522 78.732 116.522 77.588C116.522 76.38 116.762 75.312 117.242 74.384C117.73 73.456 118.422 72.728 119.318 72.2C120.214 71.664 121.286 71.396 122.534 71.396C123.59 71.396 124.494 71.592 125.246 71.984C125.998 72.376 126.57 72.916 126.962 73.604C127.362 74.284 127.562 75.068 127.562 75.956Z" fill="white"/>
<path d="M110.152 82.256C110.704 82.256 111.128 82.12 111.424 81.848C111.728 81.568 111.88 81.216 111.88 80.792C111.88 80.52 111.82 80.276 111.7 80.06C111.588 79.844 111.364 79.648 111.028 79.472C110.692 79.288 110.208 79.12 109.576 78.968C108.36 78.712 107.416 78.396 106.744 78.02C106.08 77.636 105.616 77.192 105.352 76.688C105.096 76.184 104.968 75.628 104.968 75.02C104.968 73.908 105.36 73.028 106.144 72.38C106.928 71.732 108.056 71.408 109.528 71.408C110.056 71.408 110.488 71.452 110.824 71.54C111.168 71.628 111.444 71.72 111.652 71.816C111.868 71.904 112.056 71.948 112.216 71.948C112.392 71.948 112.528 71.904 112.624 71.816C112.72 71.72 112.816 71.628 112.912 71.54C113.016 71.444 113.148 71.396 113.308 71.396C113.42 71.396 113.52 71.436 113.608 71.516C113.704 71.588 113.784 71.728 113.848 71.936L114.628 74.408C114.716 74.672 114.744 74.888 114.712 75.056C114.68 75.224 114.576 75.344 114.4 75.416C114.224 75.48 114.072 75.48 113.944 75.416C113.816 75.352 113.696 75.232 113.584 75.056C113.216 74.416 112.824 73.908 112.408 73.532C112 73.148 111.568 72.872 111.112 72.704C110.664 72.528 110.196 72.44 109.708 72.44C109.028 72.44 108.516 72.58 108.172 72.86C107.836 73.14 107.668 73.516 107.668 73.988C107.668 74.276 107.74 74.536 107.884 74.768C108.028 74.992 108.296 75.2 108.688 75.392C109.088 75.576 109.656 75.756 110.392 75.932C111.424 76.156 112.24 76.448 112.84 76.808C113.448 77.16 113.884 77.588 114.148 78.092C114.412 78.588 114.544 79.168 114.544 79.832C114.544 80.52 114.368 81.124 114.016 81.644C113.664 82.164 113.172 82.572 112.54 82.868C111.916 83.156 111.188 83.3 110.356 83.3C109.844 83.3 109.428 83.248 109.108 83.144C108.796 83.04 108.536 82.936 108.328 82.832C108.12 82.728 107.924 82.676 107.74 82.676C107.572 82.676 107.428 82.728 107.308 82.832C107.196 82.936 107.084 83.036 106.972 83.132C106.868 83.236 106.74 83.288 106.588 83.288C106.476 83.288 106.38 83.244 106.3 83.156C106.22 83.076 106.16 82.936 106.12 82.736L105.64 80.408C105.584 80.104 105.572 79.876 105.604 79.724C105.644 79.572 105.744 79.464 105.904 79.4C106.072 79.336 106.22 79.344 106.348 79.424C106.476 79.504 106.608 79.652 106.744 79.868C107.24 80.724 107.78 81.336 108.364 81.704C108.948 82.072 109.544 82.256 110.152 82.256Z" fill="white"/>
<path d="M98.9396 81.5V81.26L98.7116 81.212V74.024C98.7116 73.456 98.5676 73.02 98.2796 72.716C97.9996 72.404 97.6036 72.248 97.0916 72.248C96.6116 72.248 96.2436 72.352 95.9876 72.56C95.7396 72.768 95.6156 73.016 95.6156 73.304V74.36C95.6156 74.84 95.4556 75.212 95.1356 75.476C94.8156 75.732 94.3676 75.86 93.7916 75.86C93.3036 75.86 92.9316 75.744 92.6756 75.512C92.4276 75.28 92.3036 74.956 92.3036 74.54C92.3036 74.044 92.5076 73.556 92.9156 73.076C93.3316 72.596 93.9396 72.2 94.7396 71.888C95.5396 71.576 96.5236 71.42 97.6916 71.42C99.1556 71.42 100.244 71.716 100.956 72.308C101.668 72.9 102.024 73.704 102.024 74.72V80.96C102.024 81.184 102.068 81.352 102.156 81.464C102.252 81.576 102.384 81.632 102.552 81.632C102.728 81.632 102.86 81.592 102.948 81.512C103.036 81.424 103.112 81.336 103.176 81.248C103.216 81.192 103.26 81.148 103.308 81.116C103.356 81.076 103.412 81.056 103.476 81.056C103.572 81.056 103.64 81.092 103.68 81.164C103.728 81.236 103.752 81.328 103.752 81.44C103.752 81.704 103.656 81.98 103.464 82.268C103.28 82.548 103.004 82.788 102.636 82.988C102.268 83.188 101.808 83.288 101.256 83.288C100.544 83.288 99.9796 83.128 99.5636 82.808C99.1476 82.488 98.9396 82.052 98.9396 81.5ZM91.7876 80.492C91.7876 79.508 92.2276 78.712 93.1076 78.104C93.9956 77.488 95.2396 77.18 96.8396 77.18C97.3596 77.18 97.8236 77.224 98.2316 77.312C98.6476 77.4 99.0076 77.52 99.3116 77.672L99.0596 78.404C98.7876 78.276 98.5076 78.176 98.2196 78.104C97.9396 78.032 97.6316 77.996 97.2956 77.996C96.6396 77.996 96.1276 78.168 95.7596 78.512C95.3916 78.856 95.2076 79.332 95.2076 79.94C95.2076 80.548 95.3636 81.012 95.6756 81.332C95.9956 81.652 96.4076 81.812 96.9116 81.812C97.3356 81.812 97.7436 81.716 98.1356 81.524C98.5276 81.324 98.8596 81.052 99.1316 80.708L99.3836 81.356C98.9516 81.972 98.3676 82.448 97.6316 82.784C96.8956 83.12 96.1156 83.288 95.2916 83.288C94.2516 83.288 93.4076 83.032 92.7596 82.52C92.1116 82.008 91.7876 81.332 91.7876 80.492Z" fill="white"/>
<path d="M90.2143 78.956C90.2143 80.148 89.6983 81.12 88.6663 81.872C87.6423 82.624 86.1063 83 84.0583 83H75.7663C75.5263 83 75.3503 82.952 75.2383 82.856C75.1263 82.76 75.0703 82.632 75.0703 82.472C75.0703 82.184 75.2303 81.992 75.5503 81.896L76.2583 81.74C76.4503 81.684 76.5943 81.6 76.6903 81.488C76.7943 81.376 76.8463 81.232 76.8463 81.056V68.132C76.8463 67.956 76.7943 67.816 76.6903 67.712C76.5943 67.6 76.4503 67.516 76.2583 67.46L75.5503 67.304C75.2303 67.208 75.0703 67.016 75.0703 66.728C75.0703 66.56 75.1263 66.432 75.2383 66.344C75.3503 66.248 75.5263 66.2 75.7663 66.2H82.2103C83.6983 66.2 84.9663 66.404 86.0143 66.812C87.0703 67.22 87.8743 67.788 88.4263 68.516C88.9783 69.236 89.2543 70.08 89.2543 71.048C89.2543 71.848 89.0263 72.564 88.5703 73.196C88.1223 73.828 87.4583 74.328 86.5783 74.696C85.6983 75.056 84.6103 75.236 83.3143 75.236L83.9743 74.876C85.2383 74.876 86.3343 75.052 87.2623 75.404C88.1983 75.748 88.9223 76.228 89.4343 76.844C89.9543 77.452 90.2143 78.156 90.2143 78.956ZM82.7023 75.668H79.5463V74.732H82.4263C83.1383 74.732 83.7383 74.6 84.2263 74.336C84.7223 74.064 85.0983 73.668 85.3543 73.148C85.6103 72.62 85.7383 71.984 85.7383 71.24C85.7383 70.432 85.5783 69.732 85.2583 69.14C84.9383 68.548 84.4743 68.088 83.8663 67.76C83.2583 67.424 82.5143 67.256 81.6343 67.256H80.5423V80.816C80.5423 81.192 80.6583 81.476 80.8903 81.668C81.1303 81.852 81.4823 81.944 81.9463 81.944H83.2423C83.9543 81.944 84.5503 81.82 85.0303 81.572C85.5183 81.316 85.8863 80.956 86.1343 80.492C86.3903 80.02 86.5183 79.476 86.5183 78.86C86.5183 77.892 86.1903 77.12 85.5343 76.544C84.8863 75.96 83.9423 75.668 82.7023 75.668Z" fill="white"/>
<path d="M67.8664 75.956C67.8664 76.364 67.7504 76.676 67.5184 76.892C67.2864 77.108 66.9504 77.216 66.5104 77.216H59.0224V76.34H63.9184C64.3104 76.34 64.5064 76.164 64.5064 75.812C64.5064 74.732 64.3144 73.916 63.9304 73.364C63.5464 72.812 63.0344 72.536 62.3944 72.536C61.8984 72.536 61.4584 72.688 61.0744 72.992C60.6984 73.288 60.4024 73.724 60.1864 74.3C59.9704 74.868 59.8624 75.552 59.8624 76.352C59.8624 77.912 60.2224 79.08 60.9424 79.856C61.6704 80.632 62.6344 81.02 63.8344 81.02C64.5464 81.02 65.1704 80.876 65.7064 80.588C66.2424 80.292 66.6504 79.88 66.9304 79.352C67.0664 79.2 67.1744 79.096 67.2544 79.04C67.3344 78.984 67.4184 78.956 67.5064 78.956C67.6264 78.956 67.7144 79.012 67.7704 79.124C67.8264 79.236 67.8504 79.368 67.8424 79.52C67.8104 80.2 67.5704 80.828 67.1224 81.404C66.6824 81.98 66.0824 82.44 65.3224 82.784C64.5704 83.12 63.7024 83.288 62.7184 83.288C61.5744 83.288 60.5584 83.052 59.6704 82.58C58.7824 82.108 58.0864 81.444 57.5824 80.588C57.0784 79.732 56.8264 78.732 56.8264 77.588C56.8264 76.38 57.0664 75.312 57.5464 74.384C58.0344 73.456 58.7264 72.728 59.6224 72.2C60.5184 71.664 61.5904 71.396 62.8384 71.396C63.8944 71.396 64.7984 71.592 65.5504 71.984C66.3024 72.376 66.8744 72.916 67.2664 73.604C67.6664 74.284 67.8664 75.068 67.8664 75.956Z" fill="white"/>
<path d="M38.868 72.188V81.14C38.868 81.38 38.9 81.556 38.964 81.668C39.036 81.78 39.144 81.86 39.288 81.908L39.732 82.04C39.972 82.136 40.092 82.288 40.092 82.496C40.092 82.832 39.88 83 39.456 83H34.812C34.596 83 34.436 82.96 34.332 82.88C34.236 82.792 34.188 82.672 34.188 82.52C34.188 82.408 34.22 82.312 34.284 82.232C34.356 82.152 34.468 82.088 34.62 82.04L35.1 81.908C35.244 81.86 35.348 81.784 35.412 81.68C35.484 81.568 35.52 81.392 35.52 81.152V74.168C35.52 73.976 35.488 73.836 35.424 73.748C35.368 73.66 35.272 73.604 35.136 73.58L34.488 73.532C34.352 73.508 34.252 73.46 34.188 73.388C34.132 73.316 34.104 73.228 34.104 73.124C34.104 72.996 34.14 72.896 34.212 72.824C34.292 72.744 34.432 72.664 34.632 72.584L36.936 71.768C37.224 71.656 37.456 71.576 37.632 71.528C37.808 71.48 37.976 71.456 38.136 71.456C38.376 71.456 38.556 71.524 38.676 71.66C38.804 71.796 38.868 71.972 38.868 72.188ZM38.496 74.852L37.98 74.312L38.448 73.892C39.448 72.972 40.316 72.328 41.052 71.96C41.788 71.592 42.488 71.408 43.152 71.408C44.168 71.408 44.98 71.732 45.588 72.38C46.204 73.02 46.512 73.892 46.512 74.996V81.116C46.512 81.372 46.548 81.556 46.62 81.668C46.7 81.78 46.812 81.864 46.956 81.92L47.376 82.04C47.608 82.144 47.724 82.296 47.724 82.496C47.724 82.832 47.516 83 47.1 83H42.552C42.128 83 41.916 82.832 41.916 82.496C41.916 82.288 42.036 82.136 42.276 82.04L42.732 81.92C42.884 81.864 42.992 81.776 43.056 81.656C43.128 81.536 43.164 81.352 43.164 81.104V75.488C43.164 74.784 43 74.256 42.672 73.904C42.344 73.552 41.892 73.376 41.316 73.376C40.956 73.376 40.58 73.464 40.188 73.64C39.804 73.808 39.4 74.072 38.976 74.432L38.496 74.852ZM46.14 74.852L45.624 74.312L46.08 73.892C47.048 73.004 47.88 72.368 48.576 71.984C49.28 71.6 49.952 71.408 50.592 71.408C51.56 71.408 52.316 71.732 52.86 72.38C53.404 73.028 53.736 73.9 53.856 74.996L54.54 81.116C54.564 81.372 54.608 81.56 54.672 81.68C54.736 81.792 54.84 81.872 54.984 81.92L55.416 82.04C55.56 82.088 55.664 82.152 55.728 82.232C55.8 82.312 55.836 82.408 55.836 82.52C55.836 82.672 55.784 82.792 55.68 82.88C55.584 82.96 55.428 83 55.212 83H50.532C50.108 83 49.896 82.832 49.896 82.496C49.896 82.288 50.016 82.136 50.256 82.04L50.712 81.92C50.872 81.864 50.992 81.776 51.072 81.656C51.152 81.536 51.176 81.352 51.144 81.104L50.52 75.488C50.44 74.784 50.26 74.256 49.98 73.904C49.708 73.552 49.3 73.376 48.756 73.376C48.436 73.376 48.1 73.468 47.748 73.652C47.396 73.828 47.02 74.088 46.62 74.432L46.14 74.852Z" fill="white"/>
<path d="M26.2363 71.408C27.4603 71.408 28.5363 71.66 29.4643 72.164C30.3923 72.668 31.1163 73.368 31.6363 74.264C32.1643 75.16 32.4283 76.196 32.4283 77.372C32.4283 78.5 32.1603 79.512 31.6243 80.408C31.0883 81.296 30.3443 82 29.3923 82.52C28.4483 83.032 27.3563 83.288 26.1163 83.288C24.8923 83.288 23.8163 83.036 22.8883 82.532C21.9603 82.028 21.2323 81.328 20.7043 80.432C20.1843 79.528 19.9243 78.492 19.9243 77.324C19.9243 76.188 20.1923 75.176 20.7283 74.288C21.2643 73.392 22.0043 72.688 22.9483 72.176C23.9003 71.664 24.9963 71.408 26.2363 71.408ZM27.0763 82.1C27.6203 82.012 28.0563 81.76 28.3843 81.344C28.7123 80.928 28.9203 80.352 29.0083 79.616C29.1043 78.872 29.0563 77.98 28.8643 76.94C28.6883 75.9 28.4243 75.044 28.0723 74.372C27.7283 73.7 27.3163 73.216 26.8363 72.92C26.3643 72.616 25.8443 72.508 25.2763 72.596C24.7323 72.684 24.2963 72.94 23.9683 73.364C23.6403 73.78 23.4323 74.356 23.3443 75.092C23.2563 75.828 23.3043 76.72 23.4883 77.768C23.6723 78.8 23.9363 79.652 24.2803 80.324C24.6323 80.996 25.0443 81.484 25.5163 81.788C25.9963 82.084 26.5163 82.188 27.0763 82.1Z" fill="white"/>
<path d="M3.348 74.444H13.68V75.644H3.348V74.444ZM5.472 81.068C5.472 81.244 5.524 81.388 5.628 81.5C5.732 81.604 5.88 81.684 6.072 81.74L6.768 81.896C7.088 81.992 7.248 82.184 7.248 82.472C7.248 82.632 7.192 82.76 7.08 82.856C6.976 82.952 6.804 83 6.564 83H0.696C0.456 83 0.28 82.952 0.168 82.856C0.056 82.76 0 82.632 0 82.472C0 82.184 0.164 81.992 0.492 81.896L1.188 81.74C1.38 81.684 1.524 81.604 1.62 81.5C1.724 81.388 1.776 81.244 1.776 81.068V68.132C1.776 67.956 1.724 67.816 1.62 67.712C1.524 67.6 1.38 67.516 1.188 67.46L0.492 67.304C0.164 67.208 0 67.016 0 66.728C0 66.56 0.056 66.432 0.168 66.344C0.28 66.248 0.456 66.2 0.696 66.2H6.564C6.804 66.2 6.976 66.248 7.08 66.344C7.192 66.432 7.248 66.56 7.248 66.728C7.248 67.016 7.088 67.208 6.768 67.304L6.072 67.46C5.88 67.516 5.732 67.6 5.628 67.712C5.524 67.816 5.472 67.956 5.472 68.132V81.068ZM16.092 81.068C16.092 81.244 16.14 81.388 16.236 81.5C16.34 81.604 16.488 81.684 16.68 81.74L17.388 81.896C17.708 81.992 17.868 82.184 17.868 82.472C17.868 82.632 17.812 82.76 17.7 82.856C17.588 82.952 17.412 83 17.172 83H11.304C11.072 83 10.9 82.952 10.788 82.856C10.676 82.76 10.62 82.632 10.62 82.472C10.62 82.184 10.78 81.992 11.1 81.896L11.808 81.74C12 81.684 12.144 81.604 12.24 81.5C12.344 81.388 12.396 81.244 12.396 81.068V68.132C12.396 67.956 12.344 67.816 12.24 67.712C12.144 67.6 12 67.516 11.808 67.46L11.1 67.304C10.78 67.208 10.62 67.016 10.62 66.728C10.62 66.56 10.676 66.432 10.788 66.344C10.9 66.248 11.072 66.2 11.304 66.2H17.172C17.412 66.2 17.588 66.248 17.7 66.344C17.812 66.432 17.868 66.56 17.868 66.728C17.868 67.016 17.708 67.208 17.388 67.304L16.68 67.46C16.488 67.516 16.34 67.6 16.236 67.712C16.14 67.816 16.092 67.956 16.092 68.132V81.068Z" fill="white"/>
<path d="M64.8389 0C75.8759 0 84.8232 7.97765 84.8232 17.8184C84.8232 17.9885 84.8207 18.1581 84.8154 18.3271H84.8232V39.5059H84.7666C83.9693 48.7282 74.9092 56 63.8506 56C63.741 56 63.6316 55.9975 63.5225 55.9961C63.4126 55.9975 63.3026 56 63.1924 56C52.018 56 42.8633 48.7282 42.0576 39.5059H42V18.3271H42.0088C42.0033 18.1581 42 17.9885 42 17.8184C42 7.97765 51.2427 0 62.6436 0C63.0174 6.38904e-06 63.3889 0.00844656 63.7578 0.0253906C64.1157 0.0083734 64.4762 5.56123e-06 64.8389 0ZM55.4375 21.8037C53.2189 21.098 51.2493 21.152 49.8369 21.3799C49.131 21.4938 48.5722 21.6493 48.2051 21.7705C48.1274 21.7962 48.0595 21.8229 48 21.8447V37.4629H48.042C48.625 44.8079 55.2516 50.5994 63.3408 50.5996C63.4206 50.5996 63.5006 50.5968 63.5801 50.5957C63.6593 50.5968 63.7389 50.5996 63.8184 50.5996C71.8238 50.5995 78.382 44.8079 78.959 37.4629H79V32.25C78.9348 32.1784 78.8719 32.1037 78.8145 32.0234L78.6787 31.8125C78.68 31.8147 78.681 31.8174 78.6816 31.8184C78.6811 31.8176 78.6796 31.816 78.6787 31.8145C78.6726 31.8043 78.6583 31.7801 78.6357 31.7451C78.5899 31.6739 78.5107 31.5542 78.3965 31.3994C78.1669 31.0884 77.8002 30.6384 77.29 30.1377C76.2689 29.1356 74.6922 27.9529 72.4736 27.2471C70.2554 26.5415 68.2863 26.5954 66.874 26.8232C66.1682 26.9371 65.6093 27.0937 65.2422 27.2148C65.1835 27.2342 65.1304 27.2552 65.082 27.2725C65.0692 27.28 65.0569 27.2895 65.0439 27.2969C64.5917 27.5537 64.0934 27.654 63.6113 27.6152C62.7133 27.5744 61.868 27.0511 61.46 26.1807C61.4302 26.1171 61.4049 26.052 61.3809 25.9873C61.3737 25.9775 61.3668 25.9661 61.3594 25.9561C61.1298 25.6451 60.7639 25.1949 60.2539 24.6943C59.2328 23.6922 57.6561 22.5096 55.4375 21.8037ZM64.5332 6C64.2708 6.00001 64.01 6.00697 63.751 6.02051C63.4837 6.007 63.2142 6 62.9434 6C56.0196 6.00018 50.1964 10.472 48.5 16.54C48.6734 16.5061 48.8535 16.4735 49.04 16.4434C51.0467 16.1195 53.8322 16.0463 56.9531 17.0391C60.0741 18.032 62.3051 19.7012 63.7559 21.125C64.1281 21.4904 64.4507 21.8415 64.7256 22.1631C65.126 22.063 65.5788 21.9671 66.0771 21.8867C68.0838 21.5629 70.8694 21.4906 73.9902 22.4834C76.0305 23.1326 77.6897 24.0716 79 25.041V20.5967H78.9941C78.998 20.4618 79 20.3262 79 20.1904C78.9998 12.3532 72.5229 6 64.5332 6Z" fill="white"/>
</svg>
